<?xml version="1.0" ?><svg style="enable-background:new 0 0 48 48;" version="1.1" viewBox="0 0 48 48" xml:space="preserve" xmlns="http://www.w3.org/2000/svg" xmlns:xlink="http://www.w3.org/1999/xlink"><g id="Icons"><path d="M23.90672,8.98959c0,0-4.63137-0.08773-7.86113,0.98481l-1.75372-3.99775l-1.43395,21.60826   l-0.29479,6.82343c-0.03253,0.75259,0.26871,1.48122,0.82318,1.99118l5.89972,5.42607l9.14764,0.19776l6.26961-6.35725   c0.50996-0.51705,0.77572-1.2267,0.73112-1.95155l-1.70993-27.7379l-2.0273,3.95572   C31.69718,9.93237,25.81883,8.91937,23.90672,8.98959z" style="fill:#464747;"/><polygon points="15.9573,21.68759 21.85813,23.89311 16.8473,23.89311  " style="fill:#FFFFFF;"/><polygon points="31.88848,21.68759 25.98774,23.89311 30.99859,23.89311  " style="fill:#FFFFFF;"/><polygon points="14.79179,26.40383 23.84369,29.07452 32.89559,26.40383 31.99749,28.15274    32.61195,35.26663 27.45975,40.20615 20.18036,40.08802 14.98088,35.12481 15.54807,28.12915  " style="fill:#F9D9C0;"/><path d="   M23.90672,8.98959c0,0-4.63137-0.08773-7.86113,0.98481l-1.75372-3.99775l-1.43395,21.60826l-0.29479,6.82343   c-0.03253,0.75259,0.26871,1.48122,0.82318,1.99118l5.89972,5.42607l9.14764,0.19776l6.26961-6.35725   c0.50996-0.51705,0.77572-1.2267,0.73112-1.95155l-1.70993-27.7379l-2.0273,3.95572   C31.69718,9.93237,25.81883,8.91937,23.90672,8.98959z" style="fill:none;stroke:#303030;stroke-width:0.75;stroke-linecap:round;stroke-linejoin:round;stroke-miterlimit:10;"/><polygon points="   14.79179,26.40383 23.84369,29.07452 32.89559,26.40383 31.99749,28.15274 32.61195,35.26663 27.45975,40.20615 20.18036,40.08802    14.98088,35.12481 15.54807,28.12915  " style="fill:none;stroke:#303030;stroke-width:0.75;stroke-linecap:round;stroke-linejoin:round;stroke-miterlimit:10;"/><polyline points="   20.07632,32.41357 20.69612,31.86224 27.03761,32.00673 27.69446,32.58709  " style="fill:none;stroke:#303030;stroke-width:0.75;stroke-linecap:round;stroke-linejoin:round;stroke-miterlimit:10;"/><line style="fill:none;stroke:#303030;stroke-width:0.75;stroke-linecap:round;stroke-linejoin:round;stroke-miterlimit:10;" x1="23.84854" x2="23.89188" y1="28.8658" y2="26.99893"/><line style="fill:none;stroke:#303030;stroke-width:0.75;stroke-linecap:round;stroke-linejoin:round;stroke-miterlimit:10;" x1="22.47148" x2="25.21589" y1="33.73694" y2="33.86052"/><path d="   M16.04559,9.97439l0.35735,1.1751c0,0,5.23145-0.58506,7.22576-0.39892" style="fill:none;stroke:#303030;stroke-width:0.75;stroke-linecap:round;stroke-linejoin:round;stroke-miterlimit:10;"/><line style="fill:none;stroke:#303030;stroke-width:0.75;stroke-linecap:round;stroke-linejoin:round;stroke-miterlimit:10;" x1="25.23129" x2="26.74421" y1="10.80374" y2="10.88355"/><line style="fill:none;stroke:#303030;stroke-width:0.75;stroke-linecap:round;stroke-linejoin:round;stroke-miterlimit:10;" x1="23.84369" x2="24.00818" y1="40.14745" y2="37.4563"/></g></svg>