<?xml version="1.0" ?><svg style="enable-background:new 0 0 48 48;" version="1.1" viewBox="0 0 48 48" xml:space="preserve" xmlns="http://www.w3.org/2000/svg" xmlns:xlink="http://www.w3.org/1999/xlink"><g id="Icons"><g><path d="M23.79669,26.18393c0,0-0.69546,2.6924-2.1506,5.92193    c-1.45514,3.22953-0.87291,5.01674,2.16955,9.11504c0,0,2.51965-2.83972,2.95028-5.361s-0.91389-3.53658-1.40923-4.65342    C24.86134,30.08966,23.79669,26.18393,23.79669,26.18393z" style="fill:#F9D9C0;"/><path d="M11.87405,28.68009c0,0-1.56803,1.61134-0.55081,3.19958l-2.92357,6.67775l-2.26384-0.98577    c0,0,1.07047-3.06106,1.8101-4.66603S10.54432,29.33806,11.87405,28.68009z" style="fill:#FFC601;"/><path d="M36.22521,28.68009c0,0,1.56803,1.61134,0.55081,3.19958l2.92357,6.67775l2.26384-0.98577    c0,0-1.07047-3.06106-1.8101-4.66603C39.41369,31.30063,37.55495,29.33806,36.22521,28.68009z" style="fill:#FFC601;"/><path d="M19.85483,25.93148c-0.4726-0.07224-6.16296,1.90357-6.16296,1.90357    c1.00193-0.64904,2.34427-5.69117,2.2687-6.03392c-0.01895-0.018-0.01895-0.018-0.01895-0.03603    c-0.41586-1.49706-0.6049-3.03018-0.66164-4.5812c-0.07557-1.55114,0.05674-3.08425,0.4726-4.59923    c0.56712-2.09226,1.83377-3.66142,3.6107-4.83379c1.47453-0.91978,3.06253-1.24447,4.76389-1.22644    c1.36118,0.03605,2.68445,0.23443,3.89426,0.8657c1.60696,0.82976,2.81677,2.07423,3.6107,3.7155    c0.66175,1.35274,0.96415,2.79561,1.05867,4.27465c0.11416,1.88265-0.52262,6.46616-0.3299,6.90768l2.15685,5.6572    l-5.32961-1.60152" style="fill:#464747;"/><path d="M23.75445,26.41846c0,0-1.1689,3.6632-2.57679,6.75606s2.63798,8.04639,2.63798,8.04639    s-4.30947,1.14318-15.29716-2.61865c0,0,1.13658-4.19907,2.84193-6.6459c0,0-0.93646-1.77374,0.23637-2.85069    s8.2414-3.09609,8.2414-3.09609l0.59783-0.96662C20.43601,25.04296,22.08515,26.0736,23.75445,26.41846z" style="fill:#1D97FF;"/><path d="M23.97178,26.18748c0,0,1.22431,3.93328,2.6322,7.02613s-2.35388,8.00729-2.35388,8.00729    s4.30947,1.14318,15.29716-2.61865c0,0-1.13657-4.19907-2.84193-6.6459c0,0,0.93646-1.77374-0.23637-2.85069    c-1.17282-1.07695-8.2414-3.09609-8.2414-3.09609l-0.59783-0.96662C27.62973,25.04296,25.64108,25.84263,23.97178,26.18748z" style="fill:#1D97FF;"/><path d="M18.34172,14.04748c0,0-1.02845,2.20401-0.32186,5.6448    c0.7066,3.44078,2.0695,6.35836,5.14892,6.50588s4.50298-0.87206,5.86882-3.81535    c1.36584-2.94329,1.35483-6.34347,0.45619-8.23112c0,0-4.76877-0.24745-5.64234-3.23174    C23.85146,10.91995,21.86213,14.79212,18.34172,14.04748z" style="fill:#F9D9C0;"/><path d="M29.86733,15.12885c-0.00554-0.00137-6.01598,1.93453-6.01598,1.93453l-5.78107-1.91119    l0.38059-1.11078c0,0,4.28165-0.10273,5.39092-3.10173c0,0,0.93034,2.9819,5.60587,3.06185L29.86733,15.12885z" style="fill:#FFC601;"/><path d="M25.56379,12.94172v3.54647l-1.71245,0.57519l-1.54467-0.51066l-0.13408-3.611    c0,0,1.53667-0.81481,1.61571-1.90812C23.7883,11.0336,24.53515,12.55263,25.56379,12.94172z" style="fill:#F43735;"/><path d="    M19.85483,25.93148c-0.4726-0.07224-6.16296,1.90357-6.16296,1.90357c1.00193-0.64904,2.34427-5.69117,2.2687-6.03392    c-0.01895-0.018-0.01895-0.018-0.01895-0.03603c-0.41586-1.49706-0.6049-3.03018-0.66164-4.5812    c-0.07557-1.55114,0.05674-3.08425,0.4726-4.59923c0.56712-2.09226,1.83377-3.66142,3.6107-4.83379    c1.47453-0.91978,3.06253-1.24447,4.76389-1.22644c1.36118,0.03605,2.68445,0.23443,3.89426,0.8657    c1.60696,0.82976,2.81677,2.07423,3.6107,3.7155c0.66175,1.35274,0.96415,2.79561,1.05867,4.27465    c0.11416,1.88265-0.52262,6.46616-0.3299,6.90768l2.15685,5.6572l-5.32961-1.60152" style="fill:none;stroke:#30302F;stroke-width:0.8;stroke-linecap:round;stroke-linejoin:round;stroke-miterlimit:10;"/><path d="    M27.99178,24.39748c-0.02,0.01-0.03,0.02-0.04,0.02c0,0.01-0.01,0.01-0.01,0.01c-0.01,0.01-0.02,0.03-0.04,0.04" style="fill:none;stroke:#30302F;stroke-width:0.8;stroke-linecap:round;stroke-linejoin:round;stroke-miterlimit:10;"/><path d="    M23.97178,26.18748c-0.04,0.01-0.09,0-0.13,0c-0.71,0.03-1.33-0.09-1.88-0.29c-1.4-0.53-2.47-1.7-3.01-3.1    c-0.47-1.18-0.95819-2.80837-1.146-4.63511" style="fill:none;stroke:#30302F;stroke-width:0.8;stroke-linecap:round;stroke-linejoin:round;stroke-miterlimit:10;"/><path d="    M29.44178,14.04748c0.18,0.35,0.32,0.7,0.42,1.08c0.82,2.77-0.05,5.93-0.9,7.67c-0.28,0.59-0.61,1.15-1.01,1.62    c0,0.01-0.01,0.01-0.01,0.01c-0.01,0.01-0.02,0.03-0.04,0.04c-0.52,0.63-1.16,1.13-1.95,1.42c-0.57,0.22-1.23,0.35-1.98,0.3    c-0.04,0.01-0.09,0-0.13,0" style="fill:none;stroke:#30302F;stroke-width:0.8;stroke-linecap:round;stroke-linejoin:round;stroke-miterlimit:10;"/><path d="    M27.7835,25.24292l0.16778,0.73744l5.74525,1.6876c3.11476,0.91492,5.57066,3.10459,6.62724,5.90884l1.54039,4.08783    c0,0-16.07378,8.59794-35.72832-0.0327l1.54028-4.08769c1.0567-2.80428,3.5126-4.99394,6.62724-5.90887l5.74525-1.6876    l0.29222-0.67227" style="fill:none;stroke:#30302F;stroke-width:0.8;stroke-linecap:round;stroke-linejoin:round;stroke-miterlimit:10;"/><path d="    M27.99178,24.39748c-0.02,0.01-0.03,0.02-0.04,0.02c0,0.01-0.01,0.01-0.01,0.01c-0.01,0.01-0.02,0.03-0.04,0.04" style="fill:none;stroke:#30302F;stroke-width:0.8;stroke-linecap:round;stroke-linejoin:round;stroke-miterlimit:10;"/><path d="    M27.7835,25.24292l0.16778,0.73744l5.74525,1.6876c3.11476,0.91492,5.57066,3.10459,6.62724,5.90884l1.54039,4.08783    c0,0-16.07378,8.59794-35.72832-0.0327l1.54028-4.08769c1.0567-2.80428,3.5126-4.99394,6.62724-5.90887l5.74525-1.6876    l0.29222-0.67227" style="fill:none;stroke:#30302F;stroke-width:0.8;stroke-linecap:round;stroke-linejoin:round;stroke-miterlimit:10;"/><path d="    M23.96863,26.18393c0,0,0.52298,3.36506,2.45139,6.66366c1.92841,3.29848-2.60438,8.37331-2.60438,8.37331" style="fill:none;stroke:#30302F;stroke-width:0.8;stroke-linecap:round;stroke-linejoin:round;stroke-miterlimit:10;"/><path d="    M23.79669,26.18393c0,0-0.52298,3.36506-2.45139,6.66366c-1.92841,3.29848,2.60438,8.37331,2.60438,8.37331" style="fill:none;stroke:#30302F;stroke-width:0.8;stroke-linecap:round;stroke-linejoin:round;stroke-miterlimit:10;"/><path d="    M29.44765,14.04141c0,0-4.37067-0.01216-5.59619-3.12146" style="fill:none;stroke:#30302F;stroke-width:0.8;stroke-linecap:round;stroke-linejoin:round;stroke-miterlimit:10;"/><line style="fill:none;stroke:#30302F;stroke-width:0.8;stroke-linecap:round;stroke-linejoin:round;stroke-miterlimit:10;" x1="29.86733" x2="23.85135" y1="15.12885" y2="17.06338"/><path d="    M17.80578,18.16238c0,0-0.21894-1.77983,0.26449-3.01019c0.11335-0.36525,0.26449-0.7305,0.46601-1.09576    c0,0,4.09335-0.02935,5.31506-3.1403v6.14725l-5.78107-1.91119" style="fill:none;stroke:#30302F;stroke-width:0.8;stroke-linecap:round;stroke-linejoin:round;stroke-miterlimit:10;"/><path d="    M29.44178,14.04748c0.18,0.35,0.32,0.7,0.42,1.08c0.82,2.77-0.05,5.93-0.9,7.67c-0.28,0.59-0.61,1.15-1.01,1.62    c0,0.01-0.01,0.01-0.01,0.01c-0.01,0.01-0.02,0.03-0.04,0.04c-0.52,0.63-1.16,1.13-1.95,1.42c-0.57,0.22-1.23,0.35-1.98,0.3    c-0.04,0.01-0.09,0-0.13,0" style="fill:none;stroke:#30302F;stroke-width:0.8;stroke-linecap:round;stroke-linejoin:round;stroke-miterlimit:10;"/><polyline points="    25.46766,18.06 26.03789,18.2547 28.06417,17.61086   " style="fill:none;stroke:#30302F;stroke-width:0.8;stroke-linecap:round;stroke-linejoin:round;stroke-miterlimit:10;"/><polyline points="    22.30668,18.10368 21.86447,18.2547 19.83819,17.61086   " style="fill:none;stroke:#30302F;stroke-width:0.8;stroke-linecap:round;stroke-linejoin:round;stroke-miterlimit:10;"/><polyline points="    23.37274,20.76525 23.95118,20.98468 24.52974,20.76525   " style="fill:none;stroke:#30302F;stroke-width:0.8;stroke-linecap:round;stroke-linejoin:round;stroke-miterlimit:10;"/><path d="    M23.16879,22.82273c0,0,0.78331,0.62443,1.5649,0" style="fill:none;stroke:#30302F;stroke-width:0.8;stroke-linecap:round;stroke-linejoin:round;stroke-miterlimit:10;"/><line style="fill:none;stroke:#30302F;stroke-width:0.8;stroke-linecap:round;stroke-linejoin:round;stroke-miterlimit:10;" x1="25.56379" x2="25.56379" y1="12.94172" y2="16.32625"/><line style="fill:none;stroke:#30302F;stroke-width:0.8;stroke-linecap:round;stroke-linejoin:round;stroke-miterlimit:10;" x1="22.23827" x2="22.23827" y1="12.94172" y2="16.53206"/><line style="fill:none;stroke:#30302F;stroke-width:0.8;stroke-linecap:round;stroke-linejoin:round;stroke-miterlimit:10;" x1="22.23827" x2="22.23827" y1="12.94172" y2="16.53206"/><path d="    M8.39967,38.55742l0.7772-2.203c0.0936-0.09348,0.89262-2.99484,2.18354-4.39805c0,0-2.3636-2.16114,3.43348-4.53828" style="fill:none;stroke:#30302F;stroke-width:0.8;stroke-linecap:round;stroke-linejoin:round;stroke-miterlimit:10;"/><path d="    M39.54726,38.52009l-0.70906-2.00986c-0.09359-0.09348-0.89262-2.99484-2.18354-4.39805c0,0,2.3636-2.16114-3.43348-4.53828" style="fill:none;stroke:#30302F;stroke-width:0.8;stroke-linecap:round;stroke-linejoin:round;stroke-miterlimit:10;"/></g></g></svg>