<?xml version="1.0" ?><svg style="enable-background:new 0 0 48 48;" version="1.1" viewBox="0 0 48 48" xml:space="preserve" xmlns="http://www.w3.org/2000/svg" xmlns:xlink="http://www.w3.org/1999/xlink"><g id="Icons"><g><rect height="1.43065" style="fill:#F4F4F4;" width="16.75286" x="15.63773" y="30.71095"/><path d="M17.84488,33.07524c0,0-2.18615,2.64927-3.39062,2.75893    c-1.20446,0.10967-5.80069,0.76737-6.8873,2.61591c0,3.25662,32.77649,3.25662,32.77649,0c0,0-1.80899-2.02607-5.7948-2.55024    c0,0-3.28272-1.33303-4.28844-2.8246c0,0,0.42689,4.83867-6.24351,4.97769C24.01671,38.05293,17.58949,38.11488,17.84488,33.07524    z" style="fill:#707070;"/><path d="M15.22355,21.44674c0,0,0.76084,0.50928,1.19134,1.24826c0,0-0.135-1.10955,0.35464-3.1853    c0,0-0.61215-1.03717,0.11461-3.62544s0.69659-3.55936,0.69659-3.55936s4.79804-3.32972,12.85211,0    c0,0,0.12692,1.09863,0.52013,2.85994c0.39321,1.76131,0.58247,2.58014,0.27197,4.09049c0,0,0.62038,2.14916,0.41375,3.20407    c0,0,0.4678-0.62623,1.09247-0.97376c0,0-0.37154-0.74163-0.21489-3.65749s0.36065-3.70758-0.50679-7.2023    c0,0-3.20539-3.31655-8.17094-3.18839c-4.96555,0.12815-8.1104,3.12817-8.1104,3.12817s-0.55399,2.60691-0.50458,4.82072    S15.60863,20.16294,15.22355,21.44674z" style="fill:#464747;"/><path d="M17.88324,28.58339v4.6689c0,0-0.47762,2.59971,1.93768,3.92712s4.19579,0.87352,4.19579,0.87352    s5.00501,0.2519,6.12835-3.26863l-0.01414-6.20091c0,0-1.54517,3.09137-6.11948,3.6073    C24.01144,32.19069,18.95533,31.12609,17.88324,28.58339z" style="fill:#A5BC6D;"/><path d="M31.63869,22.28653L30.846,26.12876c0,0,0.09713,1.62589,1.334,0.64739    c1.23687-0.9785,1.59866-2.90101,1.70867-3.71049c0.11001-0.80948-0.15269-2.22511-1.25888-1.61892    C31.5236,22.05293,31.63869,22.28653,31.63869,22.28653z" style="fill:#A5BC6D;"/><path d="M16.37788,22.28653l0.79269,3.84223c0,0-0.09713,1.62589-1.334,0.64739    s-1.59866-2.90101-1.70867-3.71049c-0.11001-0.80948,0.15269-2.22511,1.25888-1.61892S16.37788,22.28653,16.37788,22.28653z" style="fill:#A5BC6D;"/><path d="M17.58074,12.3249c0,0-0.41246,1.33975-0.69659,3.55936    c-0.28413,2.21961-0.45152,2.81272-0.09321,3.53893c0,0-0.52699,3.0446-0.51881,3.05621l0.86373,3.49535    c0,0,0.03438,2.80014,1.72793,3.97832c1.69355,1.17818,5.14765,2.23762,5.14765,2.23762s5.18158-0.04578,6.4757-4.67299    l0.40532-1.54295l0.74624-3.49535c0,0-0.35235-1.00022-0.41375-3.05496s0.35417-1.49212-0.3748-4.64965    c0,0-0.45308-1.51063-0.4173-2.4499C30.43284,12.3249,24.38237,8.9402,17.58074,12.3249z" style="fill:#B9D67C;"/><path d="    M15.22355,21.44674c0.10592-0.31766,0.2647-2.54165,0-5.13637c-0.2648-2.59472,0.63541-5.71893,0.63541-5.71893    s3.60336-3.33605,8.23552-3.12432" style="fill:none;stroke:#30302F;stroke-width:0.7;stroke-linecap:round;stroke-linejoin:round;stroke-miterlimit:10;"/><path d="    M32.62979,21.44674c-0.10592-0.31766-0.2648-2.54165,0-5.13637c0.2647-2.59472-0.63552-5.71893-0.63552-5.71893    s-3.60336-3.33605-8.23541-3.12432" style="fill:none;stroke:#30302F;stroke-width:0.7;stroke-linecap:round;stroke-linejoin:round;stroke-miterlimit:10;"/><path d="    M24.01144,32.19069c4.27784-0.70519,5.73512-2.61373,6.17698-3.74187c0.45126-1.13764,1.21285-4.7479,1.41968-5.75382    c0.20683-0.99663-0.38555-3.27181-0.38555-3.27181s0.51717-1.34449-0.13162-3.72307    c-0.65808-2.3787-0.65808-3.37522-0.65808-3.37522s-3.01798-1.6265-6.42141-1.44788c-0.0282,0,0.0282,0,0,0    c-3.41272-0.17862-6.4307,1.44788-6.4307,1.44788s0,0.99652-0.64868,3.37522c-0.65819,2.37858-0.14112,3.72307-0.14112,3.72307    s-0.58287,2.27518-0.37605,3.27181c0.20683,1.00592,0.95902,4.61617,1.41028,5.75382    C18.27642,29.57696,19.7337,31.4855,24.01144,32.19069" style="fill:none;stroke:#30302F;stroke-width:0.7;stroke-linecap:round;stroke-linejoin:round;stroke-miterlimit:10;"/><path d="    M31.61457,22.69772c0,0,1.38406-2.34475,2.10826-0.67605c0.7242,1.66881-1.13347,4.6285-1.54284,4.75448    c-0.40926,0.12598-0.96926,0.38094-1.28754-0.8014" style="fill:none;stroke:#30302F;stroke-width:0.7;stroke-linecap:round;stroke-linejoin:round;stroke-miterlimit:10;"/><path d="    M24.46833,17.61974c0,0,1.0381,2.02992,1.28002,3.32571c0,0,1.20189,1.00425,0.96195,1.53395" style="fill:none;stroke:#30302F;stroke-width:0.7;stroke-linecap:round;stroke-linejoin:round;stroke-miterlimit:10;"/><path d="    M31.22494,19.42444c0,0-1.74788-1.89057-2.66376-1.91921l-0.52124-0.00009c-1.6639,0.23451-1.84472,1.46439-1.84472,1.46439    s1.53281,0.88298,2.87999,0.74833" style="fill:none;stroke:#30302F;stroke-width:0.7;stroke-linecap:round;stroke-linejoin:round;stroke-miterlimit:10;"/><polyline points="    27.38008,26.29397 25.0862,25.80459 24.32157,26.04923 23.61032,25.68227 21.14064,26.29397   " style="fill:none;stroke:#30302F;stroke-width:0.7;stroke-linecap:round;stroke-linejoin:round;stroke-miterlimit:10;"/><path d="    M22.56648,22.53497c0,0,0.22688-0.36633,0.52344-0.20933c0,0,0.63322,0.36247,1.00457,0.34617" style="fill:none;stroke:#30302F;stroke-width:0.7;stroke-linecap:round;stroke-linejoin:round;stroke-miterlimit:10;"/><path d="    M25.74835,22.53497c0,0-0.22678-0.36633-0.52333-0.20933c0,0-0.63322,0.36247-1.00457,0.34617" style="fill:none;stroke:#30302F;stroke-width:0.7;stroke-linecap:round;stroke-linejoin:round;stroke-miterlimit:10;"/><path d="    M19.21675,19.71786c1.34719,0.13465,2.87999-0.74833,2.87999-0.74833s-0.24652-1.24074-1.91053-1.47524l-0.51831,0.01094    c-0.50766,0.0188-1.26926,0.59227-1.84273,1.10934l0.00324,0.00388" style="fill:none;stroke:#30302F;stroke-width:0.7;stroke-linecap:round;stroke-linejoin:round;stroke-miterlimit:10;"/><path d="    M22.09674,18.96953c0,0,0.02737,1.08374-1.09022,1.60123" style="fill:none;stroke:#30302F;stroke-width:0.7;stroke-linecap:round;stroke-linejoin:round;stroke-miterlimit:10;"/><path d="    M27.28555,20.57076c-1.11759-0.51748-1.09022-1.60123-1.09022-1.60123" style="fill:none;stroke:#30302F;stroke-width:0.7;stroke-linecap:round;stroke-linejoin:round;stroke-miterlimit:10;"/><path d="    M30.19123,28.45164c0,0-0.09767,3.61025,0,4.54222c0.09767,0.93196,0.37772,4.74842-5.93088,5.05907h-0.48729    c-6.30859-0.31065-6.02854-4.12711-5.93088-5.05907c0.09767-0.93197,0.00269-4.45849,0.00269-4.45849" style="fill:none;stroke:#30302F;stroke-width:0.7;stroke-linecap:round;stroke-linejoin:round;stroke-miterlimit:10;"/><rect height="1.43065" style="fill:none;stroke:#30302F;stroke-width:0.7;stroke-linecap:round;stroke-linejoin:round;stroke-miterlimit:10;" width="2.24552" x="15.63773" y="30.71095"/><rect height="1.43065" style="fill:none;stroke:#30302F;stroke-width:0.7;stroke-linecap:round;stroke-linejoin:round;stroke-miterlimit:10;" width="2.24552" x="30.14506" y="30.71095"/><line style="fill:none;stroke:#30302F;stroke-width:0.7;stroke-linecap:round;stroke-linejoin:round;stroke-miterlimit:10;" x1="15.63773" x2="15.63773" y1="30.39277" y2="32.45977"/><path d="    M32.67847,35.20198c0,0,2.57477,1.36547,3.16443,4.54951" style="fill:none;stroke:#30302F;stroke-width:0.7;stroke-linecap:round;stroke-linejoin:round;stroke-miterlimit:10;"/><path d="    M15.33741,35.20198c0,0-2.57477,1.36547-3.16443,4.54951" style="fill:none;stroke:#30302F;stroke-width:0.7;stroke-linecap:round;stroke-linejoin:round;stroke-miterlimit:10;"/><path d="    M23.75761,17.61805c0,0-1.03413,2.03077-1.27856,3.32824c0,0-1.20345,1.00592-0.95902,1.53239" style="fill:none;stroke:#30302F;stroke-width:0.7;stroke-linecap:round;stroke-linejoin:round;stroke-miterlimit:10;"/><path d="    M17.13585,25.97475c-0.31828,1.18233-0.87828,0.92737-1.28754,0.8014c-0.40937-0.12597-2.26704-3.08567-1.54283-4.75448    c0.7242-1.6687,2.10826,0.67605,2.10826,0.67605" style="fill:none;stroke:#30302F;stroke-width:0.7;stroke-linecap:round;stroke-linejoin:round;stroke-miterlimit:10;"/><path d="    M27.63527,11.28346c0,0,1.35345-1.52132,1.14161-2.74963" style="fill:none;stroke:#30302F;stroke-width:0.7;stroke-linecap:round;stroke-linejoin:round;stroke-miterlimit:10;"/><path d="    M17.88324,9.15264c0.46922,0.44864,0.73415,2.6331,0.73415,2.6331" style="fill:none;stroke:#30302F;stroke-width:0.7;stroke-linecap:round;stroke-linejoin:round;stroke-miterlimit:10;"/><path d="    M26.19522,28.45164c0,0-1.3874-1.02682-4.09838,0" style="fill:none;stroke:#30302F;stroke-width:0.7;stroke-linecap:round;stroke-linejoin:round;stroke-miterlimit:10;"/><path d="    M20.65679,21.81305c0,0-1.26968,2.03401-1.44005,2.69011s-2.58788,0.53028-2.86584-2.33185" style="fill:none;stroke:#30302F;stroke-width:0.7;stroke-linecap:round;stroke-linejoin:round;stroke-miterlimit:10;"/><path d="    M28.21866,30.70176c0,0,0.83858-1.11978,0-2.76384" style="fill:none;stroke:#30302F;stroke-width:0.7;stroke-linecap:round;stroke-linejoin:round;stroke-miterlimit:10;"/><path d="    M19.82093,30.70176c0,0-0.83848-1.11978,0-2.76384" style="fill:none;stroke:#30302F;stroke-width:0.7;stroke-linecap:round;stroke-linejoin:round;stroke-miterlimit:10;"/><path d="    M40.34344,38.45008c-1.28305-1.85443-4.63602-2.24073-6.45473-2.7044c-1.81871-0.46358-3.69748-2.75182-3.69748-2.75182    c-1.29569,3.24465-6.41817,5.05907-6.41817,5.05907s-4.73557-2.20133-5.9643-5.05907c0,0-1.87877,2.28824-3.69747,2.75182    c-1.81871,0.46367-5.17168,0.84997-6.45473,2.7044" style="fill:none;stroke:#30302F;stroke-width:0.7;stroke-linecap:round;stroke-linejoin:round;stroke-miterlimit:10;"/><path d="    M24.46833,17.61974c0,0-0.26759-0.31757-0.71073-0.00169" style="fill:none;stroke:#30302F;stroke-width:0.7;stroke-linecap:round;stroke-linejoin:round;stroke-miterlimit:10;"/><path d="    M19.96095,11.38928c0,0,1.27534,0.70076,0.95007,4.48008" style="fill:none;stroke:#30302F;stroke-width:0.7;stroke-linecap:round;stroke-linejoin:round;stroke-miterlimit:10;"/><path d="    M20.235,13.38558c0,0,0.54731-0.29557,1.30219-0.1693" style="fill:none;stroke:#30302F;stroke-width:0.7;stroke-linecap:round;stroke-linejoin:round;stroke-miterlimit:10;"/><path d="    M20.31303,14.70637c0,0,0.54731-0.29557,1.30219-0.1693" style="fill:none;stroke:#30302F;stroke-width:0.7;stroke-linecap:round;stroke-linejoin:round;stroke-miterlimit:10;"/><line style="fill:none;stroke:#30302F;stroke-width:0.7;stroke-linecap:round;stroke-linejoin:round;stroke-miterlimit:10;" x1="19.18343" x2="19.18343" y1="31.69407" y2="34.6837"/></g></g></svg>