<?xml version="1.0" ?><svg style="enable-background:new 0 0 48 48;" version="1.1" viewBox="0 0 48 48" xml:space="preserve" xmlns="http://www.w3.org/2000/svg" xmlns:xlink="http://www.w3.org/1999/xlink"><g id="Icons"><g><path d="M13.3096,19.63033l-0.70129-1.68307c0,0-0.46754-1.19227-0.51432-1.28571    c-0.04677-0.09353-0.67795-1.6364-0.67795-1.6364l-0.77137,0.11687v0.86492l1.08179,3.33301l0.42446,0.84892    c0,0-0.34956,0.26233-0.34956,0.3745c0,0.11216-0.17276,0.54932,0.17577,0.69912c0.34853,0.1498,0.89785,2.89632,0.99768,2.92126    c0.09993,0.02503,0.59929,4.71902,0.59929,4.71902l-0.24973,0.87385c0,0,0,1.57298,0.12486,1.62294    c0.12486,0.04996,0.47442,0.19976,0.47442,0.19976s0.2996,3.12554,0.59919,3.42061    c0.29961,0.29517,0.27466,1.39824,0.27466,1.39824l0.87386,0.84892c0,0,0.24973,0.82399,0.54934,1.02365    c0.29958,0.19976,1.04867,0.74908,1.44819,1.09864c0.39943,0.34956,1.99744,1.09865,2.1972,1.09865    c0.19967,0,1.05856,0.32453,1.54795,0.69903c0.48948,0.37459,3.09608,1.12358,4.19473,0.57426    c1.09855-0.54923,2.39696-1.22342,2.97124-1.22342c0.57424,0,1.2983-0.67409,1.54803-0.82389    c0.24963-0.14989,2.69658-1.8227,2.92126-1.8976c0.2247-0.0749,0.82389-1.47314,0.82389-2.0474    c0-0.57426,0.17483-1.27338,0.17483-1.27338l0.57426-0.79895c0,0,0.5243-1.32335,0.5243-1.42327    c0-0.09983-0.19967-0.92382-0.19967-0.92382l0.99872-3.52045l0.2247-1.6729l1.37321-3.49551v-1.59801l1.42318-3.07105    l-0.19967-0.34956h-0.52439l-0.77402-0.12486l-1.44811,1.64788l-0.29959-0.67409c0,0-0.12487-1.32334,0.09983-1.64797    c0.22471-0.32453-0.14978-0.72406-0.14978-0.72406l-0.04998-0.2996c0,0,0.2996-1.02365,0.47442-1.19848    c0.17474-0.17473,0.32455-0.74909,0.12487-1.12358c-0.19976-0.3745-0.67419-1.44811-0.67419-1.44811l-0.79896,0.84892    c0,0-0.52439,1.14852-0.62422,1.39815c-0.09983,0.24973-0.29959,0.79905-0.29959,0.89888    c0,0.09993-1.19848,1.42318-1.19848,1.42318s-0.39952-0.17473,0.04996-0.99872c0.44939-0.82389,0.72406-2.17226,0.72406-2.17226    l-0.89887-0.72406l-0.07491-1.27338l-0.47443,0.2247l0.0749-2.44683l-0.44093-0.94885c0,0-0.88232-0.34956-1.23187-0.34956    c-0.34958,0-0.9738,0.34956-0.9738,0.34956s-0.22385,0.56852-0.2247,0.72415c-0.00085,0.15563-1.19848,3.09599-1.19848,3.09599    l-0.32463,1.69784l-0.59919,1.14861l-0.77402,0.02493l-0.34956,0.64916c0,0-0.12485,0.67419-0.32463,0.67419    c-0.19967,0-0.57426,0.0749-0.64916-0.87395c-0.0749-0.94875-0.12891-2.59663-0.12891-2.59663s-0.4204-0.94885-0.44535-1.02375    c-0.02492-0.0749-0.17473-0.49936-0.3745-0.19976c-0.19976,0.29969-0.32463,0.92382-0.37449,1.02375    c-0.04996,0.09983-0.57435,0.34956-0.59929,0.1498c-0.02494-0.19976-0.02494-1.99744,0.02493-2.17226    c0.04996-0.17473-0.17473-0.67409-0.17473-0.77402c0-0.09983,0.07492-1.17345,0.07492-1.17345l-0.92384-0.84892L20.3904,6.83086    l-0.94875-0.32463l-0.34956,0.32463l0.57426,1.72277l-0.92382,0.99872l0.3745,3.92007l0.44939,0.74899l-0.31578,2.2721    c0,0-0.43321,0.02503-0.53314-0.02493c-0.09983-0.04996-0.34954-0.02494-0.42446,0.0749    c-0.0749,0.09993-0.12477,0.2247-0.19967,0.52439c-0.07499,0.2996-0.87395,0.67409-0.87395,0.67409    s-0.92382-0.99872-0.94875-1.19848c-0.02503-0.19976-0.72406-0.92382-0.72406-0.92382l-1.12358-2.24716L13.649,13.12286    c0,0-1.19848,0.4494-1.22351,0.74899c-0.02493,0.29969,0.02503,0.67419,0.02503,0.67419l0.4494,0.69912L13.3096,19.63033z" style="fill:#C2733A;"/><path d="M13.3096,19.63033l-0.70129-1.68307c0,0-0.46754-1.19227-0.51432-1.28571    c-0.04677-0.09353-0.67795-1.6364-0.67795-1.6364l-0.77137,0.11687v0.86492l1.08179,3.33301l0.42446,0.84892    c0,0-0.34956,0.26233-0.34956,0.3745c0,0.11216-0.17276,0.54932,0.17577,0.69912c0.34853,0.1498,0.89785,2.89632,0.99768,2.92126    c0.09993,0.02503,0.59929,4.71902,0.59929,4.71902l-0.24973,0.87385c0,0,0,1.57298,0.12486,1.62294    c0.12486,0.04996,0.47442,0.19976,0.47442,0.19976s0.2996,3.12554,0.59919,3.42061    c0.29961,0.29517,0.27466,1.39824,0.27466,1.39824l0.87386,0.84892c0,0,0.24973,0.82399,0.54934,1.02365    c0.29958,0.19976,1.04867,0.74908,1.44819,1.09864c0.39943,0.34956,1.99744,1.09865,2.1972,1.09865    c0.19967,0,1.05856,0.32453,1.54795,0.69903c0.48948,0.37459,3.09608,1.12358,4.19473,0.57426    c1.09855-0.54923,2.39696-1.22342,2.97124-1.22342c0.57424,0,1.2983-0.67409,1.54803-0.82389    c0.24963-0.14989,2.69658-1.8227,2.92126-1.8976c0.2247-0.0749,0.82389-1.47314,0.82389-2.0474    c0-0.57426,0.17483-1.27338,0.17483-1.27338l0.57426-0.79895c0,0,0.5243-1.32335,0.5243-1.42327    c0-0.09983-0.19967-0.92382-0.19967-0.92382l0.99872-3.52045l0.2247-1.6729l1.37321-3.49551v-1.59801l1.42318-3.07105    l-0.19967-0.34956h-0.52439l-0.77402-0.12486l-1.44811,1.64788l-0.29959-0.67409c0,0-0.12487-1.32334,0.09983-1.64797    c0.22471-0.32453-0.14978-0.72406-0.14978-0.72406l-0.04998-0.2996c0,0,0.2996-1.02365,0.47442-1.19848    c0.17474-0.17473,0.32455-0.74909,0.12487-1.12358c-0.19976-0.3745-0.67419-1.44811-0.67419-1.44811l-0.79896,0.84892    c0,0-0.52439,1.14852-0.62422,1.39815c-0.09983,0.24973-0.29959,0.79905-0.29959,0.89888    c0,0.09993-1.19848,1.42318-1.19848,1.42318s-0.39952-0.17473,0.04996-0.99872c0.44939-0.82389,0.72406-2.17226,0.72406-2.17226    l-0.89887-0.72406l-0.07491-1.27338l-0.47443,0.2247l0.0749-2.44683l-0.44093-0.94885c0,0-0.88232-0.34956-1.23187-0.34956    c-0.34958,0-0.9738,0.34956-0.9738,0.34956s-0.22385,0.56852-0.2247,0.72415c-0.00085,0.15563-1.19848,3.09599-1.19848,3.09599    l-0.32463,1.69784l-0.59919,1.14861l-0.77402,0.02493l-0.34956,0.64916c0,0-0.12485,0.67419-0.32463,0.67419    c-0.19967,0-0.57426,0.0749-0.64916-0.87395c-0.0749-0.94875-0.12891-2.59663-0.12891-2.59663s-0.4204-0.94885-0.44535-1.02375    c-0.02492-0.0749-0.17473-0.49936-0.3745-0.19976c-0.19976,0.29969-0.32463,0.92382-0.37449,1.02375    c-0.04996,0.09983-0.57435,0.34956-0.59929,0.1498c-0.02494-0.19976-0.02494-1.99744,0.02493-2.17226    c0.04996-0.17473-0.17473-0.67409-0.17473-0.77402c0-0.09983,0.07492-1.17345,0.07492-1.17345l-0.92384-0.84892L20.3904,6.83086    l-0.94875-0.32463l-0.34956,0.32463l0.57426,1.72277l-0.92382,0.99872l0.3745,3.92007l0.44939,0.74899l-0.31578,2.2721    c0,0-0.43321,0.02503-0.53314-0.02493c-0.09983-0.04996-0.34954-0.02494-0.42446,0.0749    c-0.0749,0.09993-0.12477,0.2247-0.19967,0.52439c-0.07499,0.2996-0.87395,0.67409-0.87395,0.67409    s-0.92382-0.99872-0.94875-1.19848c-0.02503-0.19976-0.72406-0.92382-0.72406-0.92382l-1.12358-2.24716L13.649,13.12286    c0,0-1.19848,0.4494-1.22351,0.74899c-0.02493,0.29969,0.02503,0.67419,0.02503,0.67419l0.4494,0.69912L13.3096,19.63033z" style="fill:#C2733A;"/><path d="M16.99368,31.1744c0,0,1.71679,0.45805,2.81212,0c0,0-0.5178,2.21059-1.93178,1.31441    C16.46005,31.59262,16.99368,31.1744,16.99368,31.1744z" style="fill:#D59B4A;"/><path d="M29.0105,31.1744c0,0,1.71679,0.45805,2.81213,0c0,0-0.5178,2.21059-1.93178,1.31441    C28.47687,31.59262,29.0105,31.1744,29.0105,31.1744z" style="fill:#D59B4A;"/><ellipse cx="31.64109" cy="30.17118" rx="0.48212" ry="0.73736" style="fill:#FFFFFF;"/><path d="M30.3672,28.31042c0,0-1.66358-0.0647-1.80916,1.34261    c-0.14558,1.40731,0.82497,1.19702,1.39113,0.61469S30.56261,28.54129,30.3672,28.31042z" style="fill:#FFFFFF;"/><ellipse cx="17.16599" cy="30.17118" rx="0.48212" ry="0.73736" style="fill:#FFFFFF;"/><path d="M18.43988,28.31042c0,0,1.66358-0.0647,1.80916,1.34261    c0.14558,1.40731-0.82497,1.19702-1.39113,0.61469C18.29175,29.68537,18.24448,28.54129,18.43988,28.31042z" style="fill:#FFFFFF;"/><path d="    M13.3096,19.63033l-0.70129-1.68307c0,0-0.46754-1.19227-0.51432-1.28571c-0.04677-0.09353-0.67795-1.6364-0.67795-1.6364    l-0.77137,0.11687v0.86492l1.08179,3.33301l0.42446,0.84892c0,0-0.34956,0.26233-0.34956,0.3745    c0,0.11216-0.17276,0.54932,0.17577,0.69912c0.34853,0.1498,0.89785,2.89632,0.99768,2.92126    c0.09993,0.02503,0.59929,4.71902,0.59929,4.71902l-0.24973,0.87385c0,0,0,1.57298,0.12486,1.62294    c0.12486,0.04996,0.47442,0.19976,0.47442,0.19976s0.2996,3.12554,0.59919,3.42061    c0.29961,0.29517,0.27466,1.39824,0.27466,1.39824l0.87386,0.84892c0,0,0.24973,0.82399,0.54934,1.02365    c0.29958,0.19976,1.04867,0.74908,1.44819,1.09864c0.39943,0.34956,1.99744,1.09865,2.1972,1.09865    c0.19967,0,1.05856,0.32453,1.54795,0.69903c0.48948,0.37459,3.09608,1.12358,4.19473,0.57426    c1.09855-0.54923,2.39696-1.22342,2.97124-1.22342c0.57424,0,1.2983-0.67409,1.54803-0.82389    c0.24963-0.14989,2.69658-1.8227,2.92126-1.8976c0.2247-0.0749,0.82389-1.47314,0.82389-2.0474    c0-0.57426,0.17483-1.27338,0.17483-1.27338l0.57426-0.79895c0,0,0.5243-1.32335,0.5243-1.42327    c0-0.09983-0.19967-0.92382-0.19967-0.92382l0.99872-3.52045l0.2247-1.6729l1.37321-3.49551v-1.59801l1.42318-3.07105    l-0.19967-0.34956h-0.52439l-0.77402-0.12486l-1.44811,1.64788l-0.29959-0.67409c0,0-0.12487-1.32334,0.09983-1.64797    c0.22471-0.32453-0.14978-0.72406-0.14978-0.72406l-0.04998-0.2996c0,0,0.2996-1.02365,0.47442-1.19848    c0.17474-0.17473,0.32455-0.74909,0.12487-1.12358c-0.19976-0.3745-0.67419-1.44811-0.67419-1.44811l-0.79896,0.84892    c0,0-0.52439,1.14852-0.62422,1.39815c-0.09983,0.24973-0.29959,0.79905-0.29959,0.89888    c0,0.09993-1.19848,1.42318-1.19848,1.42318s-0.39952-0.17473,0.04996-0.99872c0.44939-0.82389,0.72406-2.17226,0.72406-2.17226    l-0.89887-0.72406l-0.07491-1.27338l-0.47443,0.2247l0.0749-2.44683l-0.44093-0.94885c0,0-0.88232-0.34956-1.23187-0.34956    c-0.34958,0-0.9738,0.34956-0.9738,0.34956s-0.22385,0.56852-0.2247,0.72415c-0.00085,0.15563-1.19848,3.09599-1.19848,3.09599    l-0.32463,1.69784l-0.59919,1.14861l-0.77402,0.02493l-0.34956,0.64916c0,0-0.12485,0.67419-0.32463,0.67419    c-0.19967,0-0.57426,0.0749-0.64916-0.87395c-0.0749-0.94875-0.12891-2.59663-0.12891-2.59663s-0.4204-0.94885-0.44535-1.02375    c-0.02492-0.0749-0.17473-0.49936-0.3745-0.19976c-0.19976,0.29969-0.32463,0.92382-0.37449,1.02375    c-0.04996,0.09983-0.57435,0.34956-0.59929,0.1498c-0.02494-0.19976-0.02494-1.99744,0.02493-2.17226    c0.04996-0.17473-0.17473-0.67409-0.17473-0.77402c0-0.09983,0.07492-1.17345,0.07492-1.17345l-0.92384-0.84892L20.3904,6.83086    l-0.94875-0.32463l-0.34956,0.32463l0.57426,1.72277l-0.92382,0.99872l0.3745,3.92007l0.44939,0.74899l-0.31578,2.2721    c0,0-0.43321,0.02503-0.53314-0.02493c-0.09983-0.04996-0.34954-0.02494-0.42446,0.0749    c-0.0749,0.09993-0.12477,0.2247-0.19967,0.52439c-0.07499,0.2996-0.87395,0.67409-0.87395,0.67409    s-0.92382-0.99872-0.94875-1.19848c-0.02503-0.19976-0.72406-0.92382-0.72406-0.92382l-1.12358-2.24716L13.649,13.12286    c0,0-1.19848,0.4494-1.22351,0.74899c-0.02493,0.29969,0.02503,0.67419,0.02503,0.67419l0.4494,0.69912L13.3096,19.63033z" style="fill:none;stroke:#303030;stroke-width:0.75;stroke-linecap:round;stroke-linejoin:round;stroke-miterlimit:10;"/><polyline points="    11.81416,20.19217 10.45497,19.53285 9.81522,18.76024 9.03329,18.71367   " style="fill:none;stroke:#303030;stroke-width:0.75;stroke-linecap:round;stroke-linejoin:round;stroke-miterlimit:10;"/><polyline points="    35.77559,18.0821 36.98517,15.85348 38.8269,14.05816   " style="fill:none;stroke:#303030;stroke-width:0.75;stroke-linecap:round;stroke-linejoin:round;stroke-miterlimit:10;"/><line style="fill:none;stroke:#303030;stroke-width:0.75;stroke-linecap:round;stroke-linejoin:round;stroke-miterlimit:10;" x1="36.96965" x2="38.73401" y1="16.07018" y2="16.07018"/><path d="    M17.28105,35.64624c0,0,2.34079,0.70994,3.06993,0.9401c0.72904,0.23025,2.05295,0.11517,2.70531,0.13437    s3.41525,0.15347,3.81816,0.13427s2.12973-0.28774,2.82048-0.49879c0.69077-0.21106,1.86506-0.69075,1.91106-0.9018" style="fill:none;stroke:#303030;stroke-width:0.75;stroke-linecap:round;stroke-linejoin:round;stroke-miterlimit:10;"/><path d="M20.44337,29.7898c-0.00141-0.00659-0.00508-0.01835-0.00593-0.01731    c-0.39793-1.25955-1.21213-1.57853-1.58079-1.66152c0.00075-0.00122-0.02859-0.00734-0.04357-0.00988    c-0.08054-0.016-0.13267-0.01976-0.14387-0.02155c0,0-0.02211-0.00188-0.03331-0.00263    c-1.11952-0.07688-2.09868,0.90387-2.18713,2.1908c-0.08845,1.28683,0.74739,2.39244,1.86683,2.46932    c1.11944,0.07697,2.09859-0.90387,2.18704-2.1907C20.51968,30.29829,20.44761,29.80335,20.44337,29.7898z M16.91991,30.23073    c0-0.23072,0.14453-0.41778,0.32284-0.41778c0.17822,0,0.32274,0.18706,0.32274,0.41778    c0,0.23072-0.14453,0.41769-0.32274,0.41769C17.06444,30.64841,16.91991,30.46145,16.91991,30.23073z M17.30796,31.57891    c0,0,1.50005,0.72152,2.33552,0C19.64347,31.57891,18.54219,33.26885,17.30796,31.57891z M19.70172,30.13579    c-0.58207,0-1.05386-0.56965-1.05386-1.27225c0-0.16833,0.03068-0.32632,0.08064-0.47254    c0.26083,0.06304,1.0851,0.34881,1.4292,1.50466l0.02032,0.09607C20.03444,30.08065,19.8742,30.13579,19.70172,30.13579z" style="fill:#303030;"/><path d="    M20.02644,30.5833c0,0-0.06464,2.95438-3.03276,3.09646" style="fill:none;stroke:#303030;stroke-width:0.75;stroke-linecap:round;stroke-linejoin:round;stroke-miterlimit:10;"/><path d="M28.33837,30.54632c0.08835,1.28683,1.06759,2.26767,2.18704,2.1907    c1.11944-0.07687,1.95528-1.18248,1.86683-2.46932c-0.08845-1.28693-1.06759-2.26768-2.18713-2.1908    c-0.01129,0.00075-0.03331,0.00263-0.03331,0.00263c-0.0112,0.00179-0.06333,0.00555-0.14387,0.02155    c-0.01505,0.00254-0.04432,0.00866-0.04357,0.00988c-0.36866,0.08299-1.18286,0.40197-1.58079,1.66152    c-0.00085-0.00104-0.00452,0.01073-0.00593,0.01731C28.39341,29.80335,28.32126,30.29829,28.33837,30.54632z M31.59827,30.64841    c-0.17831,0-0.32284-0.18697-0.32284-0.41769c0-0.23072,0.14453-0.41778,0.32284-0.41778    c0.17831,0,0.32284,0.18706,0.32284,0.41778C31.9211,30.46145,31.77658,30.64841,31.59827,30.64841z M29.19754,31.57891    c0.83546,0.72152,2.33552,0,2.33552,0C30.29882,33.26885,29.19754,31.57891,29.19754,31.57891z M28.66299,29.99173    l0.02032-0.09607c0.3441-1.15586,1.16837-1.44162,1.4292-1.50466c0.04996,0.14622,0.08064,0.30421,0.08064,0.47254    c0,0.7026-0.47177,1.27225-1.05386,1.27225C28.96674,30.13579,28.80648,30.08065,28.66299,29.99173z" style="fill:#303030;"/><path d="    M28.81458,30.5833c0,0,0.06466,2.95438,3.03276,3.09646" style="fill:none;stroke:#303030;stroke-width:0.75;stroke-linecap:round;stroke-linejoin:round;stroke-miterlimit:10;"/><polyline points="    13.3096,19.63033 14.49265,22.56495 14.97366,26.06018   " style="fill:none;stroke:#303030;stroke-width:0.75;stroke-linecap:round;stroke-linejoin:round;stroke-miterlimit:10;"/><polyline points="    17.21941,17.74195 18.64786,20.19217 18.82372,22.43501   " style="fill:none;stroke:#303030;stroke-width:0.75;stroke-linecap:round;stroke-linejoin:round;stroke-miterlimit:10;"/><line style="fill:none;stroke:#303030;stroke-width:0.75;stroke-linecap:round;stroke-linejoin:round;stroke-miterlimit:10;" x1="19.25063" x2="19.76589" y1="16.49351" y2="19.10594"/><polyline points="    23.01206,12.7733 23.17173,15.53393 22.77004,17.22584   " style="fill:none;stroke:#303030;stroke-width:0.75;stroke-linecap:round;stroke-linejoin:round;stroke-miterlimit:10;"/><line style="fill:none;stroke:#303030;stroke-width:0.75;stroke-linecap:round;stroke-linejoin:round;stroke-miterlimit:10;" x1="18.82372" x2="18.82372" y1="23.83513" y2="25.0402"/><polyline points="    25.74813,15.90062 25.18009,18.45274 24.99265,23.83513   " style="fill:none;stroke:#303030;stroke-width:0.75;stroke-linecap:round;stroke-linejoin:round;stroke-miterlimit:10;"/><polyline points="    31.95065,11.67465 30.76139,13.78481 30.0873,16.49351 29.84464,21.53847   " style="fill:none;stroke:#303030;stroke-width:0.75;stroke-linecap:round;stroke-linejoin:round;stroke-miterlimit:10;"/><polyline points="    32.62484,16.61837 32.2175,19.86792 32.92547,23.83513   " style="fill:none;stroke:#303030;stroke-width:0.75;stroke-linecap:round;stroke-linejoin:round;stroke-miterlimit:10;"/><polyline points="    18.29303,16.54347 16.74264,13.85764 16.43749,10.03148 14.14159,8.50574   " style="fill:none;stroke:#303030;stroke-width:0.75;stroke-linecap:round;stroke-linejoin:round;stroke-miterlimit:10;"/><line style="fill:none;stroke:#303030;stroke-width:0.75;stroke-linecap:round;stroke-linejoin:round;stroke-miterlimit:10;" x1="15.98207" x2="16.85997" y1="9.72887" y2="8.05973"/><polyline points="    24.99265,14.05816 26.32653,11.06934 25.37034,8.05973 25.74813,6.04394   " style="fill:none;stroke:#303030;stroke-width:0.75;stroke-linecap:round;stroke-linejoin:round;stroke-miterlimit:10;"/><polyline points="    20.86811,40.85512 20.50529,39.38075 20.50529,38.11838   " style="fill:none;stroke:#303030;stroke-width:0.75;stroke-linecap:round;stroke-linejoin:round;stroke-miterlimit:10;"/><line style="fill:none;stroke:#303030;stroke-width:0.75;stroke-linecap:round;stroke-linejoin:round;stroke-miterlimit:10;" x1="26.18558" x2="26.79324" y1="41.47256" y2="39.63321"/><path d="    M24.99265,25.57117l-0.32011,2.62561c0,0,0.16862,3.28192,0.16005,3.55969" style="fill:none;stroke:#303030;stroke-width:0.75;stroke-linecap:round;stroke-linejoin:round;stroke-miterlimit:10;"/><line style="fill:none;stroke:#303030;stroke-width:0.75;stroke-linecap:round;stroke-linejoin:round;stroke-miterlimit:10;" x1="13.92366" x2="14.97366" y1="31.59933" y2="32.37429"/><line style="fill:none;stroke:#303030;stroke-width:0.75;stroke-linecap:round;stroke-linejoin:round;stroke-miterlimit:10;" x1="33.04628" x2="33.06482" y1="25.24485" y2="26.30191"/><circle cx="21.78208" cy="22.43498" r="0.45706" style="fill:#303030;"/><circle cx="24.44351" cy="39.4868" r="0.45702" style="fill:#303030;"/><circle cx="28.49209" cy="24.68821" r="0.32251" style="fill:#303030;"/><path d="    M13.3096,19.63033l-0.70129-1.68307c0,0-0.46754-1.19227-0.51432-1.28571c-0.04677-0.09353-0.67795-1.6364-0.67795-1.6364    l-0.77137,0.11687v0.86492l1.08179,3.33301l0.42446,0.84892c0,0-0.34956,0.26233-0.34956,0.3745    c0,0.11216-0.17276,0.54932,0.17577,0.69912c0.34853,0.1498,0.89785,2.89632,0.99768,2.92126    c0.09993,0.02503,0.59929,4.71902,0.59929,4.71902l-0.24973,0.87385c0,0,0,1.57298,0.12486,1.62294    c0.12486,0.04996,0.47442,0.19976,0.47442,0.19976s0.2996,3.12554,0.59919,3.42061    c0.29961,0.29517,0.27466,1.39824,0.27466,1.39824l0.87386,0.84892c0,0,0.24973,0.82399,0.54934,1.02365    c0.29958,0.19976,1.04867,0.74908,1.44819,1.09864c0.39943,0.34956,1.99744,1.09865,2.1972,1.09865    c0.19967,0,1.05856,0.32453,1.54795,0.69903c0.48948,0.37459,3.09608,1.12358,4.19473,0.57426    c1.09855-0.54923,2.39696-1.22342,2.97124-1.22342c0.57424,0,1.2983-0.67409,1.54803-0.82389    c0.24963-0.14989,2.69658-1.8227,2.92126-1.8976c0.2247-0.0749,0.82389-1.47314,0.82389-2.0474    c0-0.57426,0.17483-1.27338,0.17483-1.27338l0.57426-0.79895c0,0,0.5243-1.32335,0.5243-1.42327    c0-0.09983-0.19967-0.92382-0.19967-0.92382l0.99872-3.52045l0.2247-1.6729l1.37321-3.49551v-1.59801l1.42318-3.07105    l-0.19967-0.34956h-0.52439l-0.77402-0.12486l-1.44811,1.64788l-0.29959-0.67409c0,0-0.12487-1.32334,0.09983-1.64797    c0.22471-0.32453-0.14978-0.72406-0.14978-0.72406l-0.04998-0.2996c0,0,0.2996-1.02365,0.47442-1.19848    c0.17474-0.17473,0.32455-0.74909,0.12487-1.12358c-0.19976-0.3745-0.67419-1.44811-0.67419-1.44811l-0.79896,0.84892    c0,0-0.52439,1.14852-0.62422,1.39815c-0.09983,0.24973-0.29959,0.79905-0.29959,0.89888    c0,0.09993-1.19848,1.42318-1.19848,1.42318s-0.39952-0.17473,0.04996-0.99872c0.44939-0.82389,0.72406-2.17226,0.72406-2.17226    l-0.89887-0.72406l-0.07491-1.27338l-0.47443,0.2247l0.0749-2.44683l-0.44093-0.94885c0,0-0.88232-0.34956-1.23187-0.34956    c-0.34958,0-0.9738,0.34956-0.9738,0.34956s-0.22385,0.56852-0.2247,0.72415c-0.00085,0.15563-1.19848,3.09599-1.19848,3.09599    l-0.32463,1.69784l-0.59919,1.14861l-0.77402,0.02493l-0.34956,0.64916c0,0-0.12485,0.67419-0.32463,0.67419    c-0.19967,0-0.57426,0.0749-0.64916-0.87395c-0.0749-0.94875-0.12891-2.59663-0.12891-2.59663s-0.4204-0.94885-0.44535-1.02375    c-0.02492-0.0749-0.17473-0.49936-0.3745-0.19976c-0.19976,0.29969-0.32463,0.92382-0.37449,1.02375    c-0.04996,0.09983-0.57435,0.34956-0.59929,0.1498c-0.02494-0.19976-0.02494-1.99744,0.02493-2.17226    c0.04996-0.17473-0.17473-0.67409-0.17473-0.77402c0-0.09983,0.07492-1.17345,0.07492-1.17345l-0.92384-0.84892L20.3904,6.83086    l-0.94875-0.32463l-0.34956,0.32463l0.57426,1.72277l-0.92382,0.99872l0.3745,3.92007l0.44939,0.74899l-0.31578,2.2721    c0,0-0.43321,0.02503-0.53314-0.02493c-0.09983-0.04996-0.34954-0.02494-0.42446,0.0749    c-0.0749,0.09993-0.12477,0.2247-0.19967,0.52439c-0.07499,0.2996-0.87395,0.67409-0.87395,0.67409    s-0.92382-0.99872-0.94875-1.19848c-0.02503-0.19976-0.72406-0.92382-0.72406-0.92382l-1.12358-2.24716L13.649,13.12286    c0,0-1.19848,0.4494-1.22351,0.74899c-0.02493,0.29969,0.02503,0.67419,0.02503,0.67419l0.4494,0.69912L13.3096,19.63033z" style="fill:none;stroke:#303030;stroke-width:0.75;stroke-linecap:round;stroke-linejoin:round;stroke-miterlimit:10;"/><polyline points="    11.81416,20.19217 10.45497,19.53285 9.81522,18.76024 9.03329,18.71367   " style="fill:none;stroke:#303030;stroke-width:0.75;stroke-linecap:round;stroke-linejoin:round;stroke-miterlimit:10;"/><polyline points="    35.77559,18.0821 36.98517,15.85348 38.8269,14.05816   " style="fill:none;stroke:#303030;stroke-width:0.75;stroke-linecap:round;stroke-linejoin:round;stroke-miterlimit:10;"/><line style="fill:none;stroke:#303030;stroke-width:0.75;stroke-linecap:round;stroke-linejoin:round;stroke-miterlimit:10;" x1="36.96965" x2="38.73401" y1="16.07018" y2="16.07018"/><path d="    M17.28105,35.64624c0,0,2.34079,0.70994,3.06993,0.9401c0.72904,0.23025,2.05295,0.11517,2.70531,0.13437    s3.41525,0.15347,3.81816,0.13427s2.12973-0.28774,2.82048-0.49879c0.69077-0.21106,1.86506-0.69075,1.91106-0.9018" style="fill:none;stroke:#303030;stroke-width:0.75;stroke-linecap:round;stroke-linejoin:round;stroke-miterlimit:10;"/><path d="M20.44337,29.7898c-0.00141-0.00659-0.00508-0.01835-0.00593-0.01731    c-0.39793-1.25955-1.21213-1.57853-1.58079-1.66152c0.00075-0.00122-0.02859-0.00734-0.04357-0.00988    c-0.08054-0.016-0.13267-0.01976-0.14387-0.02155c0,0-0.02211-0.00188-0.03331-0.00263    c-1.11952-0.07688-2.09868,0.90387-2.18713,2.1908c-0.08845,1.28683,0.74739,2.39244,1.86683,2.46932    c1.11944,0.07697,2.09859-0.90387,2.18704-2.1907C20.51968,30.29829,20.44761,29.80335,20.44337,29.7898z M16.91991,30.23073    c0-0.23072,0.14453-0.41778,0.32284-0.41778c0.17822,0,0.32274,0.18706,0.32274,0.41778    c0,0.23072-0.14453,0.41769-0.32274,0.41769C17.06444,30.64841,16.91991,30.46145,16.91991,30.23073z M17.30796,31.57891    c0,0,1.50005,0.72152,2.33552,0C19.64347,31.57891,18.54219,33.26885,17.30796,31.57891z M19.70172,30.13579    c-0.58207,0-1.05386-0.56965-1.05386-1.27225c0-0.16833,0.03068-0.32632,0.08064-0.47254    c0.26083,0.06304,1.0851,0.34881,1.4292,1.50466l0.02032,0.09607C20.03444,30.08065,19.8742,30.13579,19.70172,30.13579z" style="fill:#303030;"/><path d="    M20.02644,30.5833c0,0-0.06464,2.95438-3.03276,3.09646" style="fill:none;stroke:#303030;stroke-width:0.75;stroke-linecap:round;stroke-linejoin:round;stroke-miterlimit:10;"/><path d="M28.33837,30.54632c0.08835,1.28683,1.06759,2.26767,2.18704,2.1907    c1.11944-0.07687,1.95528-1.18248,1.86683-2.46932c-0.08845-1.28693-1.06759-2.26768-2.18713-2.1908    c-0.01129,0.00075-0.03331,0.00263-0.03331,0.00263c-0.0112,0.00179-0.06333,0.00555-0.14387,0.02155    c-0.01505,0.00254-0.04432,0.00866-0.04357,0.00988c-0.36866,0.08299-1.18286,0.40197-1.58079,1.66152    c-0.00085-0.00104-0.00452,0.01073-0.00593,0.01731C28.39341,29.80335,28.32126,30.29829,28.33837,30.54632z M31.59827,30.64841    c-0.17831,0-0.32284-0.18697-0.32284-0.41769c0-0.23072,0.14453-0.41778,0.32284-0.41778    c0.17831,0,0.32284,0.18706,0.32284,0.41778C31.9211,30.46145,31.77658,30.64841,31.59827,30.64841z M29.19754,31.57891    c0.83546,0.72152,2.33552,0,2.33552,0C30.29882,33.26885,29.19754,31.57891,29.19754,31.57891z M28.66299,29.99173    l0.02032-0.09607c0.3441-1.15586,1.16837-1.44162,1.4292-1.50466c0.04996,0.14622,0.08064,0.30421,0.08064,0.47254    c0,0.7026-0.47177,1.27225-1.05386,1.27225C28.96674,30.13579,28.80648,30.08065,28.66299,29.99173z" style="fill:#303030;"/><path d="    M28.81458,30.5833c0,0,0.06466,2.95438,3.03276,3.09646" style="fill:none;stroke:#303030;stroke-width:0.75;stroke-linecap:round;stroke-linejoin:round;stroke-miterlimit:10;"/><polyline points="    13.3096,19.63033 14.49265,22.56495 14.97366,26.06018   " style="fill:none;stroke:#303030;stroke-width:0.75;stroke-linecap:round;stroke-linejoin:round;stroke-miterlimit:10;"/><polyline points="    17.21941,17.74195 18.64786,20.19217 18.82372,22.43501   " style="fill:none;stroke:#303030;stroke-width:0.75;stroke-linecap:round;stroke-linejoin:round;stroke-miterlimit:10;"/><line style="fill:none;stroke:#303030;stroke-width:0.75;stroke-linecap:round;stroke-linejoin:round;stroke-miterlimit:10;" x1="19.25063" x2="19.76589" y1="16.49351" y2="19.10594"/><polyline points="    23.01206,12.7733 23.17173,15.53393 22.77004,17.22584   " style="fill:none;stroke:#303030;stroke-width:0.75;stroke-linecap:round;stroke-linejoin:round;stroke-miterlimit:10;"/><line style="fill:none;stroke:#303030;stroke-width:0.75;stroke-linecap:round;stroke-linejoin:round;stroke-miterlimit:10;" x1="18.82372" x2="18.82372" y1="23.83513" y2="25.0402"/><polyline points="    25.67081,16.24801 25.18009,18.45274 24.99265,23.83513   " style="fill:none;stroke:#303030;stroke-width:0.75;stroke-linecap:round;stroke-linejoin:round;stroke-miterlimit:10;"/><polyline points="    31.95065,11.67465 30.76139,13.78481 30.0873,16.49351 29.84464,21.53847   " style="fill:none;stroke:#303030;stroke-width:0.75;stroke-linecap:round;stroke-linejoin:round;stroke-miterlimit:10;"/><polyline points="    32.62484,16.61837 32.2175,19.86792 32.92547,23.83513   " style="fill:none;stroke:#303030;stroke-width:0.75;stroke-linecap:round;stroke-linejoin:round;stroke-miterlimit:10;"/><polyline points="    18.29303,16.54347 16.74264,13.85764 16.43749,10.03148 14.14159,8.50574   " style="fill:none;stroke:#303030;stroke-width:0.75;stroke-linecap:round;stroke-linejoin:round;stroke-miterlimit:10;"/><line style="fill:none;stroke:#303030;stroke-width:0.75;stroke-linecap:round;stroke-linejoin:round;stroke-miterlimit:10;" x1="15.98207" x2="16.85997" y1="9.72887" y2="8.05973"/><polyline points="    24.86846,14.33643 26.32653,11.06934 25.37034,8.05973 25.74813,6.04394   " style="fill:none;stroke:#303030;stroke-width:0.75;stroke-linecap:round;stroke-linejoin:round;stroke-miterlimit:10;"/><polyline points="    20.86811,40.85512 20.50529,39.38075 20.50529,38.11838   " style="fill:none;stroke:#303030;stroke-width:0.75;stroke-linecap:round;stroke-linejoin:round;stroke-miterlimit:10;"/><line style="fill:none;stroke:#303030;stroke-width:0.75;stroke-linecap:round;stroke-linejoin:round;stroke-miterlimit:10;" x1="26.18558" x2="26.79324" y1="41.47256" y2="39.63321"/><path d="    M24.99265,25.57117l-0.32011,2.62561c0,0,0.16862,3.28192,0.16005,3.55969" style="fill:none;stroke:#303030;stroke-width:0.75;stroke-linecap:round;stroke-linejoin:round;stroke-miterlimit:10;"/><line style="fill:none;stroke:#303030;stroke-width:0.75;stroke-linecap:round;stroke-linejoin:round;stroke-miterlimit:10;" x1="13.92366" x2="14.97366" y1="31.59933" y2="32.37429"/><line style="fill:none;stroke:#303030;stroke-width:0.75;stroke-linecap:round;stroke-linejoin:round;stroke-miterlimit:10;" x1="33.04628" x2="33.06482" y1="25.24485" y2="26.30191"/><circle cx="21.78208" cy="22.43498" r="0.45706" style="fill:#303030;"/><circle cx="24.44351" cy="39.4868" r="0.45702" style="fill:#303030;"/><circle cx="28.49209" cy="24.68821" r="0.32251" style="fill:#303030;"/><polyline points="    36.19017,18.97205 35.06791,21.05643 34.93515,22.56683   " style="fill:none;stroke:#303030;stroke-width:0.75;stroke-linecap:round;stroke-linejoin:round;stroke-miterlimit:10;"/></g></g></svg>